<svg xmlns="http://www.w3.org/2000/svg" width="595" height="200" viewBox="0 0 595 200"><rect width="595" height="200" rx="30" fill="#0B0E14"/><rect x="1" y="1" width="593" height="198" rx="29" fill="none" stroke="#1B2330" stroke-width="2"/><g transform="translate(46,42.0) scale(0.5800)"><rect x="34" y="60" width="132" height="90" rx="20" fill="none" stroke="#2B6BF3" stroke-width="15"/><path d="M41,71 L100,114 L159,71" fill="none" stroke="#2AD4C5" stroke-width="15" stroke-linecap="round" stroke-linejoin="round"/></g><g transform="translate(196,108)"><g fill="#FFFFFF" transform="translate(-3.668,0) scale(0.08732,-0.08732)"><g transform="translate(0.00,0)"><path d="M387.61648384181933 -16Q279.99951171875 -16 202.39971923828125 28.79998779296875Q124.7999267578125 73.5999755859375 83.4000244140625 156.5999755859375Q42.0001220703125 239.5999755859375 42.0001220703125 354Q42.0001220703125 468.4000244140625 83.4000244140625 551.9000244140625Q124.7999267578125 635.4000244140625 202.2509448043699 680.7000122070312Q279.7019628509273 726 387.5992431640625 726Q496.28884949471785 726 573.5437167395464 680.7000122070312Q650.798583984375 635.4000244140625 692.198486328125 551.9000244140625Q733.598388671875 468.4000244140625 733.598388671875 354Q733.598388671875 239.5999755859375 692.198486328125 156.5999755859375Q650.798583984375 73.5999755859375 573.5487772623698 28.79998779296875Q496.29897054036456 -16 387.61648384181933 -16ZM387.47067696707586 111.7982177734375Q447.1998291015625 111.7982177734375 489.52633003566575 140.49027049784758Q531.852830969769 169.18232322225765 554.4269648012908 223.19089305644133Q577.0010986328125 277.199462890625 577.0010986328125 354Q577.0010986328125 430.800537109375 554.40087890625 485.3327608975497Q531.8006591796875 539.8649846857244 489.4252471923828 569.0333834561434Q447.0498352050781 598.2017822265625 387.32068307059154 598.2017822265625Q328.398681640625 598.2017822265625 286.07218070652175 569.0333834561434Q243.74567977241847 539.8649846857244 221.17154594089675 485.3327608975497Q198.597412109375 430.800537109375 198.597412109375 354Q198.597412109375 277.199462890625 221.1976318359375 223.19089305644133Q243.7978515625 169.18232322225765 286.1732635498047 140.49027049784758Q328.5486755371094 111.7982177734375 387.47067696707586 111.7982177734375Z"/></g><g transform="translate(793.18,0)"><path d="M242.00048828125 -12Q159.400634765625 -12 112.5006103515625 41.5Q65.6005859375 95 65.6005859375 190.7999267578125V535.999755859375H215.597900390625V226.3994140625Q215.597900390625 164.3988037109375 234.99822998046875 135.698486328125Q254.3985595703125 106.9981689453125 295.19921875 106.9981689453125Q341.39990234375 106.9981689453125 366.600341796875 138.49853515625Q391.80078125 169.9989013671875 391.80078125 233.19921875V535.999755859375H541.798095703125V0H405.400390625L401.2005615234375 154.3990478515625L419.600341796875 150.39892578125Q408.400146484375 69.799560546875 363.400146484375 28.8997802734375Q318.400146484375 -12 242.00048828125 -12Z"/></g><g transform="translate(1417.35,0)"><path d="M288.3994140625 0Q204.9998779296875 0 166.00006103515625 38.69976806640625Q127.000244140625 77.3995361328125 127.000244140625 161.198974609375V661.7996826171875H276.99755859375V178.79833984375Q276.99755859375 140.3984375 293.29754638671875 126.09844970703125Q309.5975341796875 111.7984619140625 343.197509765625 111.7984619140625H417.99755859375V0ZM40.6005859375 424.2012939453125V535.999755859375H417.99755859375V424.2012939453125Z"/></g><g transform="translate(1879.53,0)"><path d="M205.59912109375 0Q140.39990234375 0 103.000244140625 32.9996337890625Q65.6005859375 65.999267578125 65.6005859375 139.598388671875V710H215.597900390625V155.5980224609375Q215.597900390625 132.3983154296875 226.79779052734375 122.098388671875Q237.9976806640625 111.7984619140625 258.7974853515625 111.7984619140625H294.597900390625V0Z"/></g><g transform="translate(2209.71,0)"><path d="M309.1990966796875 -12Q227.199462890625 -12 165.89971923828125 22.5999755859375Q104.5999755859375 57.199951171875 70.70013427734375 120.2999267578125Q36.80029296875 183.39990234375 36.80029296875 267.9998779296875Q36.80029296875 352.9998779296875 70.70013427734375 415.599853515625Q104.5999755859375 478.1998291015625 165.89971923828125 513.0997924804688Q227.199462890625 547.999755859375 309.1990966796875 547.999755859375Q391.19873046875 547.999755859375 452.2984619140625 513.0997924804688Q513.398193359375 478.1998291015625 547.2980346679688 415.599853515625Q581.1978759765625 352.9998779296875 581.1978759765625 267.9998779296875Q581.1978759765625 183.39990234375 547.2980346679688 120.2999267578125Q513.398193359375 57.199951171875 452.2984619140625 22.5999755859375Q391.19873046875 -12 309.1990966796875 -12ZM309.1990966796875 103.3985595703125Q365.3997802734375 103.3985595703125 396.00018310546875 146.59893798828125Q426.6005859375 189.79931640625 426.6005859375 267.9998779296875Q426.6005859375 345.6004638671875 396.00018310546875 389.100830078125Q365.3997802734375 432.6011962890625 309.1990966796875 432.6011962890625Q252.9984130859375 432.6011962890625 222.197998046875 389.100830078125Q191.3975830078125 345.6004638671875 191.3975830078125 267.9998779296875Q191.3975830078125 189.79931640625 222.197998046875 146.59893798828125Q252.9984130859375 103.3985595703125 309.1990966796875 103.3985595703125Z"/></g><g transform="translate(2844.89,0)"><path d="M309.1990966796875 -12Q227.199462890625 -12 165.89971923828125 22.5999755859375Q104.5999755859375 57.199951171875 70.70013427734375 120.2999267578125Q36.80029296875 183.39990234375 36.80029296875 267.9998779296875Q36.80029296875 352.9998779296875 70.70013427734375 415.599853515625Q104.5999755859375 478.1998291015625 165.89971923828125 513.0997924804688Q227.199462890625 547.999755859375 309.1990966796875 547.999755859375Q391.19873046875 547.999755859375 452.2984619140625 513.0997924804688Q513.398193359375 478.1998291015625 547.2980346679688 415.599853515625Q581.1978759765625 352.9998779296875 581.1978759765625 267.9998779296875Q581.1978759765625 183.39990234375 547.2980346679688 120.2999267578125Q513.398193359375 57.199951171875 452.2984619140625 22.5999755859375Q391.19873046875 -12 309.1990966796875 -12ZM309.1990966796875 103.3985595703125Q365.3997802734375 103.3985595703125 396.00018310546875 146.59893798828125Q426.6005859375 189.79931640625 426.6005859375 267.9998779296875Q426.6005859375 345.6004638671875 396.00018310546875 389.100830078125Q365.3997802734375 432.6011962890625 309.1990966796875 432.6011962890625Q252.9984130859375 432.6011962890625 222.197998046875 389.100830078125Q191.3975830078125 345.6004638671875 191.3975830078125 267.9998779296875Q191.3975830078125 189.79931640625 222.197998046875 146.59893798828125Q252.9984130859375 103.3985595703125 309.1990966796875 103.3985595703125Z"/></g><g transform="translate(3480.06,0)"><path d="M65.6005859375 0V710H215.597900390625V316.3970947265625L414.80029296875 535.999755859375H595.197509765625L386.7974853515625 315.1995849609375L601.1976318359375 0H436.8001708984375L289.59912109375 230.000732421875L215.597900390625 151.199462890625V0Z"/></g></g></g><g transform="translate(196,142)"><g fill="#2AD4C5" transform="translate(-1.663,0) scale(0.02535,-0.02535)"><g transform="translate(0.00,0)"><path d="M373.9979248046875 -12Q317.7979736328125 -12 276.597900390625 11.9000244140625Q235.3978271484375 35.800048828125 212.3978271484375 78.800048828125L209.3978271484375 0H65.6005859375V710H215.597900390625V459.599853515625Q237.3978271484375 497.399658203125 278.1978759765625 522.69970703125Q318.9979248046875 547.999755859375 373.9979248046875 547.999755859375Q442.197998046875 547.999755859375 492.29803466796875 513.3997802734375Q542.3980712890625 478.7998046875 569.798095703125 415.89984130859375Q597.1981201171875 352.9998779296875 597.1981201171875 267.9998779296875Q597.1981201171875 182.9998779296875 569.798095703125 120.09991455078125Q542.3980712890625 57.199951171875 492.29803466796875 22.5999755859375Q442.197998046875 -12 373.9979248046875 -12ZM332.3994140625 103.3985595703125Q382.0001220703125 103.3985595703125 412.30047607421875 146.7989501953125Q442.600830078125 190.1993408203125 442.600830078125 267.9998779296875Q442.600830078125 346.200439453125 412.90045166015625 389.40081787109375Q383.2000732421875 432.6011962890625 333.199462890625 432.6011962890625Q296.198974609375 432.6011962890625 269.5986328125 413.301025390625Q242.998291015625 394.0008544921875 229.298095703125 357.2005615234375Q215.597900390625 320.4002685546875 215.597900390625 267.9998779296875Q215.597900390625 216.99951171875 229.298095703125 179.99920654296875Q242.998291015625 142.9989013671875 269.39862060546875 123.19873046875Q295.7989501953125 103.3985595703125 332.3994140625 103.3985595703125Z"/></g><g transform="translate(791.78,0)"><path d="M110.19970703125 -150V-38.2015380859375H181.3992919921875Q206.9993896484375 -38.2015380859375 219.2994384765625 -30.60150146484375Q231.5994873046875 -23.00146484375 238.5994873046875 -4.00146484375L250.3997802734375 26.79931640625H209.4002685546875L20.800048828125 535.999755859375H173.99755859375L296.5989990234375 167.19677734375L412.200439453125 535.999755859375H565.39794921875L359.3975830078125 -50.8006591796875Q340.7977294921875 -104.000244140625 306.89788818359375 -127.0001220703125Q272.998046875 -150 212.1983642578125 -150Z"/></g><g transform="translate(1535.56,0)"><path d=""/></g><g transform="translate(1921.33,0)"><path d="M74.000732421875 0V710H318.5997314453125Q491.599365234375 710 584.5991821289062 617.5Q677.5989990234375 525 677.5989990234375 354Q677.5989990234375 184 586.0991821289062 92.0Q494.599365234375 0 324.5997314453125 0ZM225.998046875 127.7982177734375H318.5997314453125Q422.0006103515625 127.7982177734375 471.50115966796875 183.59869384765625Q521.001708984375 239.399169921875 521.001708984375 354.5999755859375Q521.001708984375 470.600830078125 471.50115966796875 526.4013061523438Q422.0006103515625 582.2017822265625 318.5997314453125 582.2017822265625H225.998046875Z"/></g><g transform="translate(2795.11,0)"><path d="M74.000732421875 0V710H350.3994140625Q482.399169921875 710 552.2988891601562 663.7000122070312Q622.1986083984375 617.4000244140625 622.1986083984375 517.2000732421875Q622.1986083984375 473 604.2985229492188 440.39990234375Q586.3984375 407.7998046875 551.79833984375 388.8997802734375Q517.1982421875 369.999755859375 467.9981689453125 366.39990234375L467.59814453125 367.60009765625Q557.398193359375 362.2003173828125 604.7984008789062 316.7001953125Q652.1986083984375 271.2000732421875 652.1986083984375 195.5999755859375Q652.1986083984375 96.800048828125 582.598876953125 48.4000244140625Q512.9991455078125 0 384.399658203125 0ZM225.998046875 123.598388671875H376.5999755859375Q431.6007080078125 123.598388671875 465.1009521484375 146.09869384765625Q498.6011962890625 168.5989990234375 498.6011962890625 213.7994384765625Q498.6011962890625 258.9998779296875 465.40093994140625 282.40020751953125Q432.20068359375 305.800537109375 376.5999755859375 305.800537109375H225.998046875ZM225.998046875 416.199462890625H345.599609375Q402.00048828125 416.199462890625 435.30084228515625 437.8997802734375Q468.6011962890625 459.60009765625 468.6011962890625 501.2005615234375Q468.6011962890625 545.2010498046875 436.20086669921875 565.8013305664062Q403.800537109375 586.401611328125 345.599609375 586.401611328125H225.998046875Z"/></g><g transform="translate(3655.89,0)"><path d="M74.000732421875 0V710H225.998046875V373.399658203125L158.5989990234375 421.1990966796875H562.8006591796875L495.401611328125 373.399658203125V710H647.39892578125V0H495.401611328125V340.600341796875L562.8006591796875 293.40087890625H158.5989990234375L225.998046875 340.600341796875V0Z"/></g><g transform="translate(4534.67,0)"><path d="M566.5992431640625 -61.80029296875 511.799072265625 7Q488.9990234375 -3.5999755859375 456.3990478515625 -9.79998779296875Q423.799072265625 -16 384.5992431640625 -16Q279.599365234375 -16 202.6995849609375 31.40008544921875Q125.7998046875 78.8001708984375 83.89996337890625 162.50018310546875Q42.0001220703125 246.2001953125 42.0001220703125 354Q42.0001220703125 459.7999267578125 81.300048828125 543.7999267578125Q120.5999755859375 627.7999267578125 197.3997802734375 676.8999633789062Q274.1995849609375 726 384.5992431640625 726Q495.7989501953125 726 572.2987670898438 676.8999633789062Q648.798583984375 627.7999267578125 687.8984985351562 543.7999267578125Q726.9984130859375 459.7999267578125 726.9984130859375 354Q726.9984130859375 255.4000244140625 693.4983520507812 180.29974365234375Q659.998291015625 105.199462890625 598.1981201171875 55.199462890625L692.1978759765625 -61.80029296875ZM384.5992431640625 111.7982177734375Q398.1995849609375 111.7982177734375 409.1998291015625 113.39825439453125Q420.2000732421875 114.998291015625 429.6002197265625 118.598388671875L331.4000244140625 239.7987060546875H456.9986572265625L508.9996337890625 170.9974365234375Q538.8004150390625 199.1978759765625 554.6007690429688 243.6986083984375Q570.401123046875 288.1993408203125 570.401123046875 354Q570.401123046875 419.2005615234375 550.90087890625 474.6009521484375Q531.400634765625 530.0013427734375 490.40020751953125 564.1015625Q449.3997802734375 598.2017822265625 384.5992431640625 598.2017822265625Q319.7987060546875 598.2017822265625 278.69830322265625 564.1015625Q237.597900390625 530.0013427734375 218.09765625 474.6009521484375Q198.597412109375 419.2005615234375 198.597412109375 354Q198.597412109375 289.7994384765625 218.39764404296875 234.3990478515625Q238.1978759765625 178.9986572265625 279.498291015625 145.3984375Q320.7987060546875 111.7982177734375 384.5992431640625 111.7982177734375Z"/></g></g></g></svg>